<mxfile host="app.diagrams.net" agent="Mozilla/5.0 (Windows NT 10.0; Win64; x64) AppleWebKit/537.36 (KHTML, like Gecko) Chrome/132.0.0.0 Safari/537.36" version="26.0.11">
  <diagram name="페이지-1" id="cPsiHw71rgnW8N-4dkOa">
    <mxGraphModel dx="3147" dy="1138" grid="1" gridSize="10" guides="1" tooltips="1" connect="1" arrows="1" fold="1" page="1" pageScale="1" pageWidth="827" pageHeight="1169" math="0" shadow="0">
      <root>
        <mxCell id="0" />
        <mxCell id="1" parent="0" />
        <mxCell id="VqnIIqxPbUTuVzLRbCaJ-1" value="users" style="swimlane;fontStyle=0;childLayout=stackLayout;horizontal=1;startSize=30;horizontalStack=0;resizeParent=1;resizeParentMax=0;resizeLast=0;collapsible=1;marginBottom=0;whiteSpace=wrap;html=1;" vertex="1" parent="1">
          <mxGeometry x="590" y="360" width="140" height="360" as="geometry">
            <mxRectangle x="590" y="360" width="70" height="30" as="alternateBounds" />
          </mxGeometry>
        </mxCell>
        <mxCell id="VqnIIqxPbUTuVzLRbCaJ-2" value="&lt;b&gt;user_id&lt;/b&gt;" style="text;strokeColor=none;fillColor=none;align=left;verticalAlign=middle;spacingLeft=4;spacingRight=4;overflow=hidden;points=[[0,0.5],[1,0.5]];portConstraint=eastwest;rotatable=0;whiteSpace=wrap;html=1;" vertex="1" parent="VqnIIqxPbUTuVzLRbCaJ-1">
          <mxGeometry y="30" width="140" height="30" as="geometry" />
        </mxCell>
        <mxCell id="VqnIIqxPbUTuVzLRbCaJ-3" value="account_id" style="text;strokeColor=none;fillColor=none;align=left;verticalAlign=middle;spacingLeft=4;spacingRight=4;overflow=hidden;points=[[0,0.5],[1,0.5]];portConstraint=eastwest;rotatable=0;whiteSpace=wrap;html=1;" vertex="1" parent="VqnIIqxPbUTuVzLRbCaJ-1">
          <mxGeometry y="60" width="140" height="30" as="geometry" />
        </mxCell>
        <mxCell id="VqnIIqxPbUTuVzLRbCaJ-4" value="nickname" style="text;strokeColor=none;fillColor=none;align=left;verticalAlign=middle;spacingLeft=4;spacingRight=4;overflow=hidden;points=[[0,0.5],[1,0.5]];portConstraint=eastwest;rotatable=0;whiteSpace=wrap;html=1;" vertex="1" parent="VqnIIqxPbUTuVzLRbCaJ-1">
          <mxGeometry y="90" width="140" height="30" as="geometry" />
        </mxCell>
        <mxCell id="VqnIIqxPbUTuVzLRbCaJ-5" value="hashed_password" style="text;strokeColor=none;fillColor=none;align=left;verticalAlign=middle;spacingLeft=4;spacingRight=4;overflow=hidden;points=[[0,0.5],[1,0.5]];portConstraint=eastwest;rotatable=0;whiteSpace=wrap;html=1;" vertex="1" parent="VqnIIqxPbUTuVzLRbCaJ-1">
          <mxGeometry y="120" width="140" height="30" as="geometry" />
        </mxCell>
        <mxCell id="VqnIIqxPbUTuVzLRbCaJ-6" value="find_password_question" style="text;strokeColor=none;fillColor=none;align=left;verticalAlign=middle;spacingLeft=4;spacingRight=4;overflow=hidden;points=[[0,0.5],[1,0.5]];portConstraint=eastwest;rotatable=0;whiteSpace=wrap;html=1;" vertex="1" parent="VqnIIqxPbUTuVzLRbCaJ-1">
          <mxGeometry y="150" width="140" height="30" as="geometry" />
        </mxCell>
        <mxCell id="VqnIIqxPbUTuVzLRbCaJ-7" value="find_password_answer" style="text;strokeColor=none;fillColor=none;align=left;verticalAlign=middle;spacingLeft=4;spacingRight=4;overflow=hidden;points=[[0,0.5],[1,0.5]];portConstraint=eastwest;rotatable=0;whiteSpace=wrap;html=1;" vertex="1" parent="VqnIIqxPbUTuVzLRbCaJ-1">
          <mxGeometry y="180" width="140" height="30" as="geometry" />
        </mxCell>
        <mxCell id="VqnIIqxPbUTuVzLRbCaJ-8" value="gender" style="text;strokeColor=none;fillColor=none;align=left;verticalAlign=middle;spacingLeft=4;spacingRight=4;overflow=hidden;points=[[0,0.5],[1,0.5]];portConstraint=eastwest;rotatable=0;whiteSpace=wrap;html=1;" vertex="1" parent="VqnIIqxPbUTuVzLRbCaJ-1">
          <mxGeometry y="210" width="140" height="30" as="geometry" />
        </mxCell>
        <mxCell id="VqnIIqxPbUTuVzLRbCaJ-9" value="birth_year" style="text;strokeColor=none;fillColor=none;align=left;verticalAlign=middle;spacingLeft=4;spacingRight=4;overflow=hidden;points=[[0,0.5],[1,0.5]];portConstraint=eastwest;rotatable=0;whiteSpace=wrap;html=1;" vertex="1" parent="VqnIIqxPbUTuVzLRbCaJ-1">
          <mxGeometry y="240" width="140" height="30" as="geometry" />
        </mxCell>
        <mxCell id="VqnIIqxPbUTuVzLRbCaJ-10" value="roles" style="text;strokeColor=none;fillColor=none;align=left;verticalAlign=middle;spacingLeft=4;spacingRight=4;overflow=hidden;points=[[0,0.5],[1,0.5]];portConstraint=eastwest;rotatable=0;whiteSpace=wrap;html=1;" vertex="1" parent="VqnIIqxPbUTuVzLRbCaJ-1">
          <mxGeometry y="270" width="140" height="30" as="geometry" />
        </mxCell>
        <mxCell id="VqnIIqxPbUTuVzLRbCaJ-11" value="created_at" style="text;strokeColor=none;fillColor=none;align=left;verticalAlign=middle;spacingLeft=4;spacingRight=4;overflow=hidden;points=[[0,0.5],[1,0.5]];portConstraint=eastwest;rotatable=0;whiteSpace=wrap;html=1;" vertex="1" parent="VqnIIqxPbUTuVzLRbCaJ-1">
          <mxGeometry y="300" width="140" height="30" as="geometry" />
        </mxCell>
        <mxCell id="VqnIIqxPbUTuVzLRbCaJ-12" value="update_at" style="text;strokeColor=none;fillColor=none;align=left;verticalAlign=middle;spacingLeft=4;spacingRight=4;overflow=hidden;points=[[0,0.5],[1,0.5]];portConstraint=eastwest;rotatable=0;whiteSpace=wrap;html=1;" vertex="1" parent="VqnIIqxPbUTuVzLRbCaJ-1">
          <mxGeometry y="330" width="140" height="30" as="geometry" />
        </mxCell>
        <mxCell id="VqnIIqxPbUTuVzLRbCaJ-14" value="questions" style="swimlane;fontStyle=0;childLayout=stackLayout;horizontal=1;startSize=30;horizontalStack=0;resizeParent=1;resizeParentMax=0;resizeLast=0;collapsible=1;marginBottom=0;whiteSpace=wrap;html=1;" vertex="1" parent="1">
          <mxGeometry x="220" y="1149.95" width="140" height="240" as="geometry" />
        </mxCell>
        <mxCell id="VqnIIqxPbUTuVzLRbCaJ-15" value="&lt;b&gt;question_id&lt;/b&gt;" style="text;strokeColor=none;fillColor=none;align=left;verticalAlign=middle;spacingLeft=4;spacingRight=4;overflow=hidden;points=[[0,0.5],[1,0.5]];portConstraint=eastwest;rotatable=0;whiteSpace=wrap;html=1;" vertex="1" parent="VqnIIqxPbUTuVzLRbCaJ-14">
          <mxGeometry y="30" width="140" height="30" as="geometry" />
        </mxCell>
        <mxCell id="VqnIIqxPbUTuVzLRbCaJ-16" value="&lt;i&gt;subject_id&lt;/i&gt;" style="text;strokeColor=none;fillColor=none;align=left;verticalAlign=middle;spacingLeft=4;spacingRight=4;overflow=hidden;points=[[0,0.5],[1,0.5]];portConstraint=eastwest;rotatable=0;whiteSpace=wrap;html=1;" vertex="1" parent="VqnIIqxPbUTuVzLRbCaJ-14">
          <mxGeometry y="60" width="140" height="30" as="geometry" />
        </mxCell>
        <mxCell id="VqnIIqxPbUTuVzLRbCaJ-17" value="&lt;i&gt;level_id&lt;/i&gt;" style="text;strokeColor=none;fillColor=none;align=left;verticalAlign=middle;spacingLeft=4;spacingRight=4;overflow=hidden;points=[[0,0.5],[1,0.5]];portConstraint=eastwest;rotatable=0;whiteSpace=wrap;html=1;" vertex="1" parent="VqnIIqxPbUTuVzLRbCaJ-14">
          <mxGeometry y="90" width="140" height="30" as="geometry" />
        </mxCell>
        <mxCell id="VqnIIqxPbUTuVzLRbCaJ-18" value="question_text" style="text;strokeColor=none;fillColor=none;align=left;verticalAlign=middle;spacingLeft=4;spacingRight=4;overflow=hidden;points=[[0,0.5],[1,0.5]];portConstraint=eastwest;rotatable=0;whiteSpace=wrap;html=1;" vertex="1" parent="VqnIIqxPbUTuVzLRbCaJ-14">
          <mxGeometry y="120" width="140" height="30" as="geometry" />
        </mxCell>
        <mxCell id="VqnIIqxPbUTuVzLRbCaJ-19" value="deleted" style="text;strokeColor=none;fillColor=none;align=left;verticalAlign=middle;spacingLeft=4;spacingRight=4;overflow=hidden;points=[[0,0.5],[1,0.5]];portConstraint=eastwest;rotatable=0;whiteSpace=wrap;html=1;" vertex="1" parent="VqnIIqxPbUTuVzLRbCaJ-14">
          <mxGeometry y="150" width="140" height="30" as="geometry" />
        </mxCell>
        <mxCell id="VqnIIqxPbUTuVzLRbCaJ-20" value="created_at" style="text;strokeColor=none;fillColor=none;align=left;verticalAlign=middle;spacingLeft=4;spacingRight=4;overflow=hidden;points=[[0,0.5],[1,0.5]];portConstraint=eastwest;rotatable=0;whiteSpace=wrap;html=1;" vertex="1" parent="VqnIIqxPbUTuVzLRbCaJ-14">
          <mxGeometry y="180" width="140" height="30" as="geometry" />
        </mxCell>
        <mxCell id="VqnIIqxPbUTuVzLRbCaJ-21" value="update_at" style="text;strokeColor=none;fillColor=none;align=left;verticalAlign=middle;spacingLeft=4;spacingRight=4;overflow=hidden;points=[[0,0.5],[1,0.5]];portConstraint=eastwest;rotatable=0;whiteSpace=wrap;html=1;" vertex="1" parent="VqnIIqxPbUTuVzLRbCaJ-14">
          <mxGeometry y="210" width="140" height="30" as="geometry" />
        </mxCell>
        <mxCell id="VqnIIqxPbUTuVzLRbCaJ-22" value="subjects" style="swimlane;fontStyle=0;childLayout=stackLayout;horizontal=1;startSize=30;horizontalStack=0;resizeParent=1;resizeParentMax=0;resizeLast=0;collapsible=1;marginBottom=0;whiteSpace=wrap;html=1;" vertex="1" parent="1">
          <mxGeometry x="-120" y="1149.95" width="140" height="180" as="geometry" />
        </mxCell>
        <mxCell id="VqnIIqxPbUTuVzLRbCaJ-23" value="&lt;b&gt;subject_id&lt;/b&gt;" style="text;strokeColor=none;fillColor=none;align=left;verticalAlign=middle;spacingLeft=4;spacingRight=4;overflow=hidden;points=[[0,0.5],[1,0.5]];portConstraint=eastwest;rotatable=0;whiteSpace=wrap;html=1;" vertex="1" parent="VqnIIqxPbUTuVzLRbCaJ-22">
          <mxGeometry y="30" width="140" height="30" as="geometry" />
        </mxCell>
        <mxCell id="VqnIIqxPbUTuVzLRbCaJ-24" value="subject_name" style="text;strokeColor=none;fillColor=none;align=left;verticalAlign=middle;spacingLeft=4;spacingRight=4;overflow=hidden;points=[[0,0.5],[1,0.5]];portConstraint=eastwest;rotatable=0;whiteSpace=wrap;html=1;" vertex="1" parent="VqnIIqxPbUTuVzLRbCaJ-22">
          <mxGeometry y="60" width="140" height="30" as="geometry" />
        </mxCell>
        <mxCell id="VqnIIqxPbUTuVzLRbCaJ-25" value="deleted" style="text;strokeColor=none;fillColor=none;align=left;verticalAlign=middle;spacingLeft=4;spacingRight=4;overflow=hidden;points=[[0,0.5],[1,0.5]];portConstraint=eastwest;rotatable=0;whiteSpace=wrap;html=1;" vertex="1" parent="VqnIIqxPbUTuVzLRbCaJ-22">
          <mxGeometry y="90" width="140" height="30" as="geometry" />
        </mxCell>
        <mxCell id="VqnIIqxPbUTuVzLRbCaJ-26" value="created_at" style="text;strokeColor=none;fillColor=none;align=left;verticalAlign=middle;spacingLeft=4;spacingRight=4;overflow=hidden;points=[[0,0.5],[1,0.5]];portConstraint=eastwest;rotatable=0;whiteSpace=wrap;html=1;" vertex="1" parent="VqnIIqxPbUTuVzLRbCaJ-22">
          <mxGeometry y="120" width="140" height="30" as="geometry" />
        </mxCell>
        <mxCell id="VqnIIqxPbUTuVzLRbCaJ-27" value="update_at" style="text;strokeColor=none;fillColor=none;align=left;verticalAlign=middle;spacingLeft=4;spacingRight=4;overflow=hidden;points=[[0,0.5],[1,0.5]];portConstraint=eastwest;rotatable=0;whiteSpace=wrap;html=1;" vertex="1" parent="VqnIIqxPbUTuVzLRbCaJ-22">
          <mxGeometry y="150" width="140" height="30" as="geometry" />
        </mxCell>
        <mxCell id="VqnIIqxPbUTuVzLRbCaJ-28" value="levels" style="swimlane;fontStyle=0;childLayout=stackLayout;horizontal=1;startSize=30;horizontalStack=0;resizeParent=1;resizeParentMax=0;resizeLast=0;collapsible=1;marginBottom=0;whiteSpace=wrap;html=1;" vertex="1" parent="1">
          <mxGeometry x="50" y="1149.95" width="140" height="210" as="geometry" />
        </mxCell>
        <mxCell id="VqnIIqxPbUTuVzLRbCaJ-29" value="&lt;b&gt;level_id&lt;/b&gt;" style="text;strokeColor=none;fillColor=none;align=left;verticalAlign=middle;spacingLeft=4;spacingRight=4;overflow=hidden;points=[[0,0.5],[1,0.5]];portConstraint=eastwest;rotatable=0;whiteSpace=wrap;html=1;" vertex="1" parent="VqnIIqxPbUTuVzLRbCaJ-28">
          <mxGeometry y="30" width="140" height="30" as="geometry" />
        </mxCell>
        <mxCell id="VqnIIqxPbUTuVzLRbCaJ-30" value="&lt;i&gt;subject_id&lt;/i&gt;" style="text;strokeColor=none;fillColor=none;align=left;verticalAlign=middle;spacingLeft=4;spacingRight=4;overflow=hidden;points=[[0,0.5],[1,0.5]];portConstraint=eastwest;rotatable=0;whiteSpace=wrap;html=1;" vertex="1" parent="VqnIIqxPbUTuVzLRbCaJ-28">
          <mxGeometry y="60" width="140" height="30" as="geometry" />
        </mxCell>
        <mxCell id="VqnIIqxPbUTuVzLRbCaJ-31" value="level" style="text;strokeColor=none;fillColor=none;align=left;verticalAlign=middle;spacingLeft=4;spacingRight=4;overflow=hidden;points=[[0,0.5],[1,0.5]];portConstraint=eastwest;rotatable=0;whiteSpace=wrap;html=1;" vertex="1" parent="VqnIIqxPbUTuVzLRbCaJ-28">
          <mxGeometry y="90" width="140" height="30" as="geometry" />
        </mxCell>
        <mxCell id="VqnIIqxPbUTuVzLRbCaJ-43" value="deleted" style="text;strokeColor=none;fillColor=none;align=left;verticalAlign=middle;spacingLeft=4;spacingRight=4;overflow=hidden;points=[[0,0.5],[1,0.5]];portConstraint=eastwest;rotatable=0;whiteSpace=wrap;html=1;" vertex="1" parent="VqnIIqxPbUTuVzLRbCaJ-28">
          <mxGeometry y="120" width="140" height="30" as="geometry" />
        </mxCell>
        <mxCell id="VqnIIqxPbUTuVzLRbCaJ-32" value="created_at" style="text;strokeColor=none;fillColor=none;align=left;verticalAlign=middle;spacingLeft=4;spacingRight=4;overflow=hidden;points=[[0,0.5],[1,0.5]];portConstraint=eastwest;rotatable=0;whiteSpace=wrap;html=1;" vertex="1" parent="VqnIIqxPbUTuVzLRbCaJ-28">
          <mxGeometry y="150" width="140" height="30" as="geometry" />
        </mxCell>
        <mxCell id="VqnIIqxPbUTuVzLRbCaJ-33" value="update_at" style="text;strokeColor=none;fillColor=none;align=left;verticalAlign=middle;spacingLeft=4;spacingRight=4;overflow=hidden;points=[[0,0.5],[1,0.5]];portConstraint=eastwest;rotatable=0;whiteSpace=wrap;html=1;" vertex="1" parent="VqnIIqxPbUTuVzLRbCaJ-28">
          <mxGeometry y="180" width="140" height="30" as="geometry" />
        </mxCell>
        <mxCell id="VqnIIqxPbUTuVzLRbCaJ-44" value="answers" style="swimlane;fontStyle=0;childLayout=stackLayout;horizontal=1;startSize=30;horizontalStack=0;resizeParent=1;resizeParentMax=0;resizeLast=0;collapsible=1;marginBottom=0;whiteSpace=wrap;html=1;" vertex="1" parent="1">
          <mxGeometry x="390" y="1149.95" width="140" height="210" as="geometry" />
        </mxCell>
        <mxCell id="VqnIIqxPbUTuVzLRbCaJ-45" value="&lt;b&gt;answer_id&lt;/b&gt;" style="text;strokeColor=none;fillColor=none;align=left;verticalAlign=middle;spacingLeft=4;spacingRight=4;overflow=hidden;points=[[0,0.5],[1,0.5]];portConstraint=eastwest;rotatable=0;whiteSpace=wrap;html=1;" vertex="1" parent="VqnIIqxPbUTuVzLRbCaJ-44">
          <mxGeometry y="30" width="140" height="30" as="geometry" />
        </mxCell>
        <mxCell id="VqnIIqxPbUTuVzLRbCaJ-46" value="&lt;i&gt;question_id&lt;/i&gt;" style="text;strokeColor=none;fillColor=none;align=left;verticalAlign=middle;spacingLeft=4;spacingRight=4;overflow=hidden;points=[[0,0.5],[1,0.5]];portConstraint=eastwest;rotatable=0;whiteSpace=wrap;html=1;" vertex="1" parent="VqnIIqxPbUTuVzLRbCaJ-44">
          <mxGeometry y="60" width="140" height="30" as="geometry" />
        </mxCell>
        <mxCell id="VqnIIqxPbUTuVzLRbCaJ-47" value="answer_text" style="text;strokeColor=none;fillColor=none;align=left;verticalAlign=middle;spacingLeft=4;spacingRight=4;overflow=hidden;points=[[0,0.5],[1,0.5]];portConstraint=eastwest;rotatable=0;whiteSpace=wrap;html=1;" vertex="1" parent="VqnIIqxPbUTuVzLRbCaJ-44">
          <mxGeometry y="90" width="140" height="30" as="geometry" />
        </mxCell>
        <mxCell id="VqnIIqxPbUTuVzLRbCaJ-48" value="is_correct" style="text;strokeColor=none;fillColor=none;align=left;verticalAlign=middle;spacingLeft=4;spacingRight=4;overflow=hidden;points=[[0,0.5],[1,0.5]];portConstraint=eastwest;rotatable=0;whiteSpace=wrap;html=1;" vertex="1" parent="VqnIIqxPbUTuVzLRbCaJ-44">
          <mxGeometry y="120" width="140" height="30" as="geometry" />
        </mxCell>
        <mxCell id="VqnIIqxPbUTuVzLRbCaJ-50" value="created_at" style="text;strokeColor=none;fillColor=none;align=left;verticalAlign=middle;spacingLeft=4;spacingRight=4;overflow=hidden;points=[[0,0.5],[1,0.5]];portConstraint=eastwest;rotatable=0;whiteSpace=wrap;html=1;" vertex="1" parent="VqnIIqxPbUTuVzLRbCaJ-44">
          <mxGeometry y="150" width="140" height="30" as="geometry" />
        </mxCell>
        <mxCell id="VqnIIqxPbUTuVzLRbCaJ-51" value="update_at" style="text;strokeColor=none;fillColor=none;align=left;verticalAlign=middle;spacingLeft=4;spacingRight=4;overflow=hidden;points=[[0,0.5],[1,0.5]];portConstraint=eastwest;rotatable=0;whiteSpace=wrap;html=1;" vertex="1" parent="VqnIIqxPbUTuVzLRbCaJ-44">
          <mxGeometry y="180" width="140" height="30" as="geometry" />
        </mxCell>
        <mxCell id="VqnIIqxPbUTuVzLRbCaJ-59" value="incorrect_note" style="swimlane;fontStyle=0;childLayout=stackLayout;horizontal=1;startSize=30;horizontalStack=0;resizeParent=1;resizeParentMax=0;resizeLast=0;collapsible=1;marginBottom=0;whiteSpace=wrap;html=1;" vertex="1" parent="1">
          <mxGeometry x="-50" y="740" width="140" height="270" as="geometry" />
        </mxCell>
        <mxCell id="VqnIIqxPbUTuVzLRbCaJ-60" value="&lt;b&gt;incorrect_note_id&lt;/b&gt;" style="text;strokeColor=none;fillColor=none;align=left;verticalAlign=middle;spacingLeft=4;spacingRight=4;overflow=hidden;points=[[0,0.5],[1,0.5]];portConstraint=eastwest;rotatable=0;whiteSpace=wrap;html=1;" vertex="1" parent="VqnIIqxPbUTuVzLRbCaJ-59">
          <mxGeometry y="30" width="140" height="30" as="geometry" />
        </mxCell>
        <mxCell id="VqnIIqxPbUTuVzLRbCaJ-62" value="&lt;i&gt;user_id&lt;/i&gt;" style="text;strokeColor=none;fillColor=none;align=left;verticalAlign=middle;spacingLeft=4;spacingRight=4;overflow=hidden;points=[[0,0.5],[1,0.5]];portConstraint=eastwest;rotatable=0;whiteSpace=wrap;html=1;" vertex="1" parent="VqnIIqxPbUTuVzLRbCaJ-59">
          <mxGeometry y="60" width="140" height="30" as="geometry" />
        </mxCell>
        <mxCell id="VqnIIqxPbUTuVzLRbCaJ-61" value="&lt;i&gt;question_id&lt;/i&gt;" style="text;strokeColor=none;fillColor=none;align=left;verticalAlign=middle;spacingLeft=4;spacingRight=4;overflow=hidden;points=[[0,0.5],[1,0.5]];portConstraint=eastwest;rotatable=0;whiteSpace=wrap;html=1;" vertex="1" parent="VqnIIqxPbUTuVzLRbCaJ-59">
          <mxGeometry y="90" width="140" height="30" as="geometry" />
        </mxCell>
        <mxCell id="VqnIIqxPbUTuVzLRbCaJ-63" value="&lt;i&gt;subject_id&lt;/i&gt;" style="text;strokeColor=none;fillColor=none;align=left;verticalAlign=middle;spacingLeft=4;spacingRight=4;overflow=hidden;points=[[0,0.5],[1,0.5]];portConstraint=eastwest;rotatable=0;whiteSpace=wrap;html=1;" vertex="1" parent="VqnIIqxPbUTuVzLRbCaJ-59">
          <mxGeometry y="120" width="140" height="30" as="geometry" />
        </mxCell>
        <mxCell id="VqnIIqxPbUTuVzLRbCaJ-67" value="is_my_question" style="text;strokeColor=none;fillColor=none;align=left;verticalAlign=middle;spacingLeft=4;spacingRight=4;overflow=hidden;points=[[0,0.5],[1,0.5]];portConstraint=eastwest;rotatable=0;whiteSpace=wrap;html=1;" vertex="1" parent="VqnIIqxPbUTuVzLRbCaJ-59">
          <mxGeometry y="150" width="140" height="30" as="geometry" />
        </mxCell>
        <mxCell id="VqnIIqxPbUTuVzLRbCaJ-68" value="&lt;i&gt;level_id&lt;/i&gt;" style="text;strokeColor=none;fillColor=none;align=left;verticalAlign=middle;spacingLeft=4;spacingRight=4;overflow=hidden;points=[[0,0.5],[1,0.5]];portConstraint=eastwest;rotatable=0;whiteSpace=wrap;html=1;" vertex="1" parent="VqnIIqxPbUTuVzLRbCaJ-59">
          <mxGeometry y="180" width="140" height="30" as="geometry" />
        </mxCell>
        <mxCell id="VqnIIqxPbUTuVzLRbCaJ-64" value="created_at" style="text;strokeColor=none;fillColor=none;align=left;verticalAlign=middle;spacingLeft=4;spacingRight=4;overflow=hidden;points=[[0,0.5],[1,0.5]];portConstraint=eastwest;rotatable=0;whiteSpace=wrap;html=1;" vertex="1" parent="VqnIIqxPbUTuVzLRbCaJ-59">
          <mxGeometry y="210" width="140" height="30" as="geometry" />
        </mxCell>
        <mxCell id="VqnIIqxPbUTuVzLRbCaJ-65" value="update_at" style="text;strokeColor=none;fillColor=none;align=left;verticalAlign=middle;spacingLeft=4;spacingRight=4;overflow=hidden;points=[[0,0.5],[1,0.5]];portConstraint=eastwest;rotatable=0;whiteSpace=wrap;html=1;" vertex="1" parent="VqnIIqxPbUTuVzLRbCaJ-59">
          <mxGeometry y="240" width="140" height="30" as="geometry" />
        </mxCell>
        <mxCell id="VqnIIqxPbUTuVzLRbCaJ-70" value="UNIQUE&lt;div&gt;(user_id, question_id, is_my_question)&lt;/div&gt;" style="text;html=1;align=left;verticalAlign=middle;whiteSpace=wrap;rounded=0;" vertex="1" parent="1">
          <mxGeometry x="-50" y="1020" width="140" height="30" as="geometry" />
        </mxCell>
        <mxCell id="VqnIIqxPbUTuVzLRbCaJ-71" value="exam_history" style="swimlane;fontStyle=0;childLayout=stackLayout;horizontal=1;startSize=30;horizontalStack=0;resizeParent=1;resizeParentMax=0;resizeLast=0;collapsible=1;marginBottom=0;whiteSpace=wrap;html=1;" vertex="1" parent="1">
          <mxGeometry x="180" y="740" width="140" height="302" as="geometry" />
        </mxCell>
        <mxCell id="VqnIIqxPbUTuVzLRbCaJ-72" value="&lt;b&gt;history_id&lt;/b&gt;" style="text;strokeColor=none;fillColor=none;align=left;verticalAlign=middle;spacingLeft=4;spacingRight=4;overflow=hidden;points=[[0,0.5],[1,0.5]];portConstraint=eastwest;rotatable=0;whiteSpace=wrap;html=1;" vertex="1" parent="VqnIIqxPbUTuVzLRbCaJ-71">
          <mxGeometry y="30" width="140" height="30" as="geometry" />
        </mxCell>
        <mxCell id="VqnIIqxPbUTuVzLRbCaJ-73" value="&lt;i style=&quot;&quot;&gt;user_id&lt;/i&gt;" style="text;strokeColor=none;fillColor=none;align=left;verticalAlign=middle;spacingLeft=4;spacingRight=4;overflow=hidden;points=[[0,0.5],[1,0.5]];portConstraint=eastwest;rotatable=0;whiteSpace=wrap;html=1;" vertex="1" parent="VqnIIqxPbUTuVzLRbCaJ-71">
          <mxGeometry y="60" width="140" height="30" as="geometry" />
        </mxCell>
        <mxCell id="VqnIIqxPbUTuVzLRbCaJ-74" value="subject_name" style="text;strokeColor=none;fillColor=none;align=left;verticalAlign=middle;spacingLeft=4;spacingRight=4;overflow=hidden;points=[[0,0.5],[1,0.5]];portConstraint=eastwest;rotatable=0;whiteSpace=wrap;html=1;" vertex="1" parent="VqnIIqxPbUTuVzLRbCaJ-71">
          <mxGeometry y="90" width="140" height="30" as="geometry" />
        </mxCell>
        <mxCell id="VqnIIqxPbUTuVzLRbCaJ-75" value="&lt;i&gt;level_id&lt;/i&gt;" style="text;strokeColor=none;fillColor=none;align=left;verticalAlign=middle;spacingLeft=4;spacingRight=4;overflow=hidden;points=[[0,0.5],[1,0.5]];portConstraint=eastwest;rotatable=0;whiteSpace=wrap;html=1;" vertex="1" parent="VqnIIqxPbUTuVzLRbCaJ-71">
          <mxGeometry y="120" width="140" height="30" as="geometry" />
        </mxCell>
        <mxCell id="VqnIIqxPbUTuVzLRbCaJ-76" value="total_questions_count" style="text;strokeColor=none;fillColor=none;align=left;verticalAlign=middle;spacingLeft=4;spacingRight=4;overflow=hidden;points=[[0,0.5],[1,0.5]];portConstraint=eastwest;rotatable=0;whiteSpace=wrap;html=1;" vertex="1" parent="VqnIIqxPbUTuVzLRbCaJ-71">
          <mxGeometry y="150" width="140" height="30" as="geometry" />
        </mxCell>
        <mxCell id="VqnIIqxPbUTuVzLRbCaJ-77" value="correct_questions_count" style="text;strokeColor=none;fillColor=none;align=left;verticalAlign=middle;spacingLeft=4;spacingRight=4;overflow=hidden;points=[[0,0.5],[1,0.5]];portConstraint=eastwest;rotatable=0;whiteSpace=wrap;html=1;" vertex="1" parent="VqnIIqxPbUTuVzLRbCaJ-71">
          <mxGeometry y="180" width="140" height="30" as="geometry" />
        </mxCell>
        <mxCell id="VqnIIqxPbUTuVzLRbCaJ-80" value="correct_rate" style="text;strokeColor=none;fillColor=none;align=left;verticalAlign=middle;spacingLeft=4;spacingRight=4;overflow=hidden;points=[[0,0.5],[1,0.5]];portConstraint=eastwest;rotatable=0;whiteSpace=wrap;html=1;" vertex="1" parent="VqnIIqxPbUTuVzLRbCaJ-71">
          <mxGeometry y="210" width="140" height="31" as="geometry" />
        </mxCell>
        <mxCell id="VqnIIqxPbUTuVzLRbCaJ-78" value="created_at" style="text;strokeColor=none;fillColor=none;align=left;verticalAlign=middle;spacingLeft=4;spacingRight=4;overflow=hidden;points=[[0,0.5],[1,0.5]];portConstraint=eastwest;rotatable=0;whiteSpace=wrap;html=1;" vertex="1" parent="VqnIIqxPbUTuVzLRbCaJ-71">
          <mxGeometry y="241" width="140" height="30" as="geometry" />
        </mxCell>
        <mxCell id="VqnIIqxPbUTuVzLRbCaJ-79" value="update_at" style="text;strokeColor=none;fillColor=none;align=left;verticalAlign=middle;spacingLeft=4;spacingRight=4;overflow=hidden;points=[[0,0.5],[1,0.5]];portConstraint=eastwest;rotatable=0;whiteSpace=wrap;html=1;" vertex="1" parent="VqnIIqxPbUTuVzLRbCaJ-71">
          <mxGeometry y="271" width="140" height="31" as="geometry" />
        </mxCell>
        <mxCell id="VqnIIqxPbUTuVzLRbCaJ-81" value="history_items" style="swimlane;fontStyle=0;childLayout=stackLayout;horizontal=1;startSize=30;horizontalStack=0;resizeParent=1;resizeParentMax=0;resizeLast=0;collapsible=1;marginBottom=0;whiteSpace=wrap;html=1;" vertex="1" parent="1">
          <mxGeometry x="350" y="740" width="140" height="302" as="geometry" />
        </mxCell>
        <mxCell id="VqnIIqxPbUTuVzLRbCaJ-83" value="&lt;b&gt;history_items_id&lt;/b&gt;" style="text;strokeColor=none;fillColor=none;align=left;verticalAlign=middle;spacingLeft=4;spacingRight=4;overflow=hidden;points=[[0,0.5],[1,0.5]];portConstraint=eastwest;rotatable=0;whiteSpace=wrap;html=1;" vertex="1" parent="VqnIIqxPbUTuVzLRbCaJ-81">
          <mxGeometry y="30" width="140" height="30" as="geometry" />
        </mxCell>
        <mxCell id="VqnIIqxPbUTuVzLRbCaJ-82" value="&lt;i&gt;history_id&lt;/i&gt;" style="text;strokeColor=none;fillColor=none;align=left;verticalAlign=middle;spacingLeft=4;spacingRight=4;overflow=hidden;points=[[0,0.5],[1,0.5]];portConstraint=eastwest;rotatable=0;whiteSpace=wrap;html=1;" vertex="1" parent="VqnIIqxPbUTuVzLRbCaJ-81">
          <mxGeometry y="60" width="140" height="30" as="geometry" />
        </mxCell>
        <mxCell id="VqnIIqxPbUTuVzLRbCaJ-84" value="is_my_question" style="text;strokeColor=none;fillColor=none;align=left;verticalAlign=middle;spacingLeft=4;spacingRight=4;overflow=hidden;points=[[0,0.5],[1,0.5]];portConstraint=eastwest;rotatable=0;whiteSpace=wrap;html=1;" vertex="1" parent="VqnIIqxPbUTuVzLRbCaJ-81">
          <mxGeometry y="90" width="140" height="30" as="geometry" />
        </mxCell>
        <mxCell id="VqnIIqxPbUTuVzLRbCaJ-85" value="&lt;i&gt;question_id&lt;/i&gt;" style="text;strokeColor=none;fillColor=none;align=left;verticalAlign=middle;spacingLeft=4;spacingRight=4;overflow=hidden;points=[[0,0.5],[1,0.5]];portConstraint=eastwest;rotatable=0;whiteSpace=wrap;html=1;" vertex="1" parent="VqnIIqxPbUTuVzLRbCaJ-81">
          <mxGeometry y="120" width="140" height="30" as="geometry" />
        </mxCell>
        <mxCell id="VqnIIqxPbUTuVzLRbCaJ-86" value="&lt;i&gt;correct_answer_id&lt;/i&gt;" style="text;strokeColor=none;fillColor=none;align=left;verticalAlign=middle;spacingLeft=4;spacingRight=4;overflow=hidden;points=[[0,0.5],[1,0.5]];portConstraint=eastwest;rotatable=0;whiteSpace=wrap;html=1;" vertex="1" parent="VqnIIqxPbUTuVzLRbCaJ-81">
          <mxGeometry y="150" width="140" height="30" as="geometry" />
        </mxCell>
        <mxCell id="VqnIIqxPbUTuVzLRbCaJ-87" value="&lt;i&gt;user_answer_id&lt;/i&gt;" style="text;strokeColor=none;fillColor=none;align=left;verticalAlign=middle;spacingLeft=4;spacingRight=4;overflow=hidden;points=[[0,0.5],[1,0.5]];portConstraint=eastwest;rotatable=0;whiteSpace=wrap;html=1;" vertex="1" parent="VqnIIqxPbUTuVzLRbCaJ-81">
          <mxGeometry y="180" width="140" height="30" as="geometry" />
        </mxCell>
        <mxCell id="VqnIIqxPbUTuVzLRbCaJ-88" value="is_correct" style="text;strokeColor=none;fillColor=none;align=left;verticalAlign=middle;spacingLeft=4;spacingRight=4;overflow=hidden;points=[[0,0.5],[1,0.5]];portConstraint=eastwest;rotatable=0;whiteSpace=wrap;html=1;" vertex="1" parent="VqnIIqxPbUTuVzLRbCaJ-81">
          <mxGeometry y="210" width="140" height="31" as="geometry" />
        </mxCell>
        <mxCell id="VqnIIqxPbUTuVzLRbCaJ-89" value="created_at" style="text;strokeColor=none;fillColor=none;align=left;verticalAlign=middle;spacingLeft=4;spacingRight=4;overflow=hidden;points=[[0,0.5],[1,0.5]];portConstraint=eastwest;rotatable=0;whiteSpace=wrap;html=1;" vertex="1" parent="VqnIIqxPbUTuVzLRbCaJ-81">
          <mxGeometry y="241" width="140" height="30" as="geometry" />
        </mxCell>
        <mxCell id="VqnIIqxPbUTuVzLRbCaJ-90" value="update_at" style="text;strokeColor=none;fillColor=none;align=left;verticalAlign=middle;spacingLeft=4;spacingRight=4;overflow=hidden;points=[[0,0.5],[1,0.5]];portConstraint=eastwest;rotatable=0;whiteSpace=wrap;html=1;" vertex="1" parent="VqnIIqxPbUTuVzLRbCaJ-81">
          <mxGeometry y="271" width="140" height="31" as="geometry" />
        </mxCell>
        <mxCell id="VqnIIqxPbUTuVzLRbCaJ-91" value="memo" style="swimlane;fontStyle=0;childLayout=stackLayout;horizontal=1;startSize=30;horizontalStack=0;resizeParent=1;resizeParentMax=0;resizeLast=0;collapsible=1;marginBottom=0;whiteSpace=wrap;html=1;" vertex="1" parent="1">
          <mxGeometry x="590" y="740" width="140" height="212" as="geometry" />
        </mxCell>
        <mxCell id="VqnIIqxPbUTuVzLRbCaJ-92" value="&lt;b&gt;memo_id&lt;/b&gt;" style="text;strokeColor=none;fillColor=none;align=left;verticalAlign=middle;spacingLeft=4;spacingRight=4;overflow=hidden;points=[[0,0.5],[1,0.5]];portConstraint=eastwest;rotatable=0;whiteSpace=wrap;html=1;" vertex="1" parent="VqnIIqxPbUTuVzLRbCaJ-91">
          <mxGeometry y="30" width="140" height="30" as="geometry" />
        </mxCell>
        <mxCell id="VqnIIqxPbUTuVzLRbCaJ-93" value="&lt;i&gt;user_id&lt;/i&gt;" style="text;strokeColor=none;fillColor=none;align=left;verticalAlign=middle;spacingLeft=4;spacingRight=4;overflow=hidden;points=[[0,0.5],[1,0.5]];portConstraint=eastwest;rotatable=0;whiteSpace=wrap;html=1;" vertex="1" parent="VqnIIqxPbUTuVzLRbCaJ-91">
          <mxGeometry y="60" width="140" height="30" as="geometry" />
        </mxCell>
        <mxCell id="VqnIIqxPbUTuVzLRbCaJ-94" value="memo_text" style="text;strokeColor=none;fillColor=none;align=left;verticalAlign=middle;spacingLeft=4;spacingRight=4;overflow=hidden;points=[[0,0.5],[1,0.5]];portConstraint=eastwest;rotatable=0;whiteSpace=wrap;html=1;" vertex="1" parent="VqnIIqxPbUTuVzLRbCaJ-91">
          <mxGeometry y="90" width="140" height="30" as="geometry" />
        </mxCell>
        <mxCell id="VqnIIqxPbUTuVzLRbCaJ-98" value="deleted" style="text;strokeColor=none;fillColor=none;align=left;verticalAlign=middle;spacingLeft=4;spacingRight=4;overflow=hidden;points=[[0,0.5],[1,0.5]];portConstraint=eastwest;rotatable=0;whiteSpace=wrap;html=1;" vertex="1" parent="VqnIIqxPbUTuVzLRbCaJ-91">
          <mxGeometry y="120" width="140" height="31" as="geometry" />
        </mxCell>
        <mxCell id="VqnIIqxPbUTuVzLRbCaJ-99" value="created_at" style="text;strokeColor=none;fillColor=none;align=left;verticalAlign=middle;spacingLeft=4;spacingRight=4;overflow=hidden;points=[[0,0.5],[1,0.5]];portConstraint=eastwest;rotatable=0;whiteSpace=wrap;html=1;" vertex="1" parent="VqnIIqxPbUTuVzLRbCaJ-91">
          <mxGeometry y="151" width="140" height="30" as="geometry" />
        </mxCell>
        <mxCell id="VqnIIqxPbUTuVzLRbCaJ-100" value="update_at" style="text;strokeColor=none;fillColor=none;align=left;verticalAlign=middle;spacingLeft=4;spacingRight=4;overflow=hidden;points=[[0,0.5],[1,0.5]];portConstraint=eastwest;rotatable=0;whiteSpace=wrap;html=1;" vertex="1" parent="VqnIIqxPbUTuVzLRbCaJ-91">
          <mxGeometry y="181" width="140" height="31" as="geometry" />
        </mxCell>
        <mxCell id="VqnIIqxPbUTuVzLRbCaJ-101" value="my_questions_levels" style="swimlane;fontStyle=0;childLayout=stackLayout;horizontal=1;startSize=30;horizontalStack=0;resizeParent=1;resizeParentMax=0;resizeLast=0;collapsible=1;marginBottom=0;whiteSpace=wrap;html=1;" vertex="1" parent="1">
          <mxGeometry x="820" y="740" width="140" height="212" as="geometry" />
        </mxCell>
        <mxCell id="VqnIIqxPbUTuVzLRbCaJ-102" value="&lt;b&gt;level_id&lt;/b&gt;" style="text;strokeColor=none;fillColor=none;align=left;verticalAlign=middle;spacingLeft=4;spacingRight=4;overflow=hidden;points=[[0,0.5],[1,0.5]];portConstraint=eastwest;rotatable=0;whiteSpace=wrap;html=1;" vertex="1" parent="VqnIIqxPbUTuVzLRbCaJ-101">
          <mxGeometry y="30" width="140" height="30" as="geometry" />
        </mxCell>
        <mxCell id="VqnIIqxPbUTuVzLRbCaJ-103" value="&lt;i&gt;user_id&lt;/i&gt;" style="text;strokeColor=none;fillColor=none;align=left;verticalAlign=middle;spacingLeft=4;spacingRight=4;overflow=hidden;points=[[0,0.5],[1,0.5]];portConstraint=eastwest;rotatable=0;whiteSpace=wrap;html=1;" vertex="1" parent="VqnIIqxPbUTuVzLRbCaJ-101">
          <mxGeometry y="60" width="140" height="30" as="geometry" />
        </mxCell>
        <mxCell id="VqnIIqxPbUTuVzLRbCaJ-104" value="level" style="text;strokeColor=none;fillColor=none;align=left;verticalAlign=middle;spacingLeft=4;spacingRight=4;overflow=hidden;points=[[0,0.5],[1,0.5]];portConstraint=eastwest;rotatable=0;whiteSpace=wrap;html=1;" vertex="1" parent="VqnIIqxPbUTuVzLRbCaJ-101">
          <mxGeometry y="90" width="140" height="30" as="geometry" />
        </mxCell>
        <mxCell id="VqnIIqxPbUTuVzLRbCaJ-105" value="deleted" style="text;strokeColor=none;fillColor=none;align=left;verticalAlign=middle;spacingLeft=4;spacingRight=4;overflow=hidden;points=[[0,0.5],[1,0.5]];portConstraint=eastwest;rotatable=0;whiteSpace=wrap;html=1;" vertex="1" parent="VqnIIqxPbUTuVzLRbCaJ-101">
          <mxGeometry y="120" width="140" height="31" as="geometry" />
        </mxCell>
        <mxCell id="VqnIIqxPbUTuVzLRbCaJ-106" value="created_at" style="text;strokeColor=none;fillColor=none;align=left;verticalAlign=middle;spacingLeft=4;spacingRight=4;overflow=hidden;points=[[0,0.5],[1,0.5]];portConstraint=eastwest;rotatable=0;whiteSpace=wrap;html=1;" vertex="1" parent="VqnIIqxPbUTuVzLRbCaJ-101">
          <mxGeometry y="151" width="140" height="30" as="geometry" />
        </mxCell>
        <mxCell id="VqnIIqxPbUTuVzLRbCaJ-107" value="update_at" style="text;strokeColor=none;fillColor=none;align=left;verticalAlign=middle;spacingLeft=4;spacingRight=4;overflow=hidden;points=[[0,0.5],[1,0.5]];portConstraint=eastwest;rotatable=0;whiteSpace=wrap;html=1;" vertex="1" parent="VqnIIqxPbUTuVzLRbCaJ-101">
          <mxGeometry y="181" width="140" height="31" as="geometry" />
        </mxCell>
        <mxCell id="VqnIIqxPbUTuVzLRbCaJ-108" value="my_questions" style="swimlane;fontStyle=0;childLayout=stackLayout;horizontal=1;startSize=30;horizontalStack=0;resizeParent=1;resizeParentMax=0;resizeLast=0;collapsible=1;marginBottom=0;whiteSpace=wrap;html=1;" vertex="1" parent="1">
          <mxGeometry x="990" y="740" width="140" height="243" as="geometry" />
        </mxCell>
        <mxCell id="VqnIIqxPbUTuVzLRbCaJ-109" value="&lt;b&gt;question_id&lt;/b&gt;" style="text;strokeColor=none;fillColor=none;align=left;verticalAlign=middle;spacingLeft=4;spacingRight=4;overflow=hidden;points=[[0,0.5],[1,0.5]];portConstraint=eastwest;rotatable=0;whiteSpace=wrap;html=1;" vertex="1" parent="VqnIIqxPbUTuVzLRbCaJ-108">
          <mxGeometry y="30" width="140" height="30" as="geometry" />
        </mxCell>
        <mxCell id="VqnIIqxPbUTuVzLRbCaJ-110" value="&lt;i&gt;user_id&lt;/i&gt;" style="text;strokeColor=none;fillColor=none;align=left;verticalAlign=middle;spacingLeft=4;spacingRight=4;overflow=hidden;points=[[0,0.5],[1,0.5]];portConstraint=eastwest;rotatable=0;whiteSpace=wrap;html=1;" vertex="1" parent="VqnIIqxPbUTuVzLRbCaJ-108">
          <mxGeometry y="60" width="140" height="30" as="geometry" />
        </mxCell>
        <mxCell id="VqnIIqxPbUTuVzLRbCaJ-111" value="&lt;i&gt;level_id&lt;/i&gt;" style="text;strokeColor=none;fillColor=none;align=left;verticalAlign=middle;spacingLeft=4;spacingRight=4;overflow=hidden;points=[[0,0.5],[1,0.5]];portConstraint=eastwest;rotatable=0;whiteSpace=wrap;html=1;" vertex="1" parent="VqnIIqxPbUTuVzLRbCaJ-108">
          <mxGeometry y="90" width="140" height="30" as="geometry" />
        </mxCell>
        <mxCell id="VqnIIqxPbUTuVzLRbCaJ-112" value="question_text" style="text;strokeColor=none;fillColor=none;align=left;verticalAlign=middle;spacingLeft=4;spacingRight=4;overflow=hidden;points=[[0,0.5],[1,0.5]];portConstraint=eastwest;rotatable=0;whiteSpace=wrap;html=1;" vertex="1" parent="VqnIIqxPbUTuVzLRbCaJ-108">
          <mxGeometry y="120" width="140" height="31" as="geometry" />
        </mxCell>
        <mxCell id="VqnIIqxPbUTuVzLRbCaJ-115" value="deleted" style="text;strokeColor=none;fillColor=none;align=left;verticalAlign=middle;spacingLeft=4;spacingRight=4;overflow=hidden;points=[[0,0.5],[1,0.5]];portConstraint=eastwest;rotatable=0;whiteSpace=wrap;html=1;" vertex="1" parent="VqnIIqxPbUTuVzLRbCaJ-108">
          <mxGeometry y="151" width="140" height="31" as="geometry" />
        </mxCell>
        <mxCell id="VqnIIqxPbUTuVzLRbCaJ-113" value="created_at" style="text;strokeColor=none;fillColor=none;align=left;verticalAlign=middle;spacingLeft=4;spacingRight=4;overflow=hidden;points=[[0,0.5],[1,0.5]];portConstraint=eastwest;rotatable=0;whiteSpace=wrap;html=1;" vertex="1" parent="VqnIIqxPbUTuVzLRbCaJ-108">
          <mxGeometry y="182" width="140" height="30" as="geometry" />
        </mxCell>
        <mxCell id="VqnIIqxPbUTuVzLRbCaJ-114" value="update_at" style="text;strokeColor=none;fillColor=none;align=left;verticalAlign=middle;spacingLeft=4;spacingRight=4;overflow=hidden;points=[[0,0.5],[1,0.5]];portConstraint=eastwest;rotatable=0;whiteSpace=wrap;html=1;" vertex="1" parent="VqnIIqxPbUTuVzLRbCaJ-108">
          <mxGeometry y="212" width="140" height="31" as="geometry" />
        </mxCell>
        <mxCell id="VqnIIqxPbUTuVzLRbCaJ-116" value="my_questions_answers" style="swimlane;fontStyle=0;childLayout=stackLayout;horizontal=1;startSize=30;horizontalStack=0;resizeParent=1;resizeParentMax=0;resizeLast=0;collapsible=1;marginBottom=0;whiteSpace=wrap;html=1;" vertex="1" parent="1">
          <mxGeometry x="1160" y="740" width="140" height="212" as="geometry" />
        </mxCell>
        <mxCell id="VqnIIqxPbUTuVzLRbCaJ-119" value="&lt;b&gt;answer_id&lt;/b&gt;" style="text;strokeColor=none;fillColor=none;align=left;verticalAlign=middle;spacingLeft=4;spacingRight=4;overflow=hidden;points=[[0,0.5],[1,0.5]];portConstraint=eastwest;rotatable=0;whiteSpace=wrap;html=1;" vertex="1" parent="VqnIIqxPbUTuVzLRbCaJ-116">
          <mxGeometry y="30" width="140" height="30" as="geometry" />
        </mxCell>
        <mxCell id="VqnIIqxPbUTuVzLRbCaJ-117" value="&lt;i&gt;my_question_id&lt;/i&gt;" style="text;strokeColor=none;fillColor=none;align=left;verticalAlign=middle;spacingLeft=4;spacingRight=4;overflow=hidden;points=[[0,0.5],[1,0.5]];portConstraint=eastwest;rotatable=0;whiteSpace=wrap;html=1;" vertex="1" parent="VqnIIqxPbUTuVzLRbCaJ-116">
          <mxGeometry y="60" width="140" height="30" as="geometry" />
        </mxCell>
        <mxCell id="VqnIIqxPbUTuVzLRbCaJ-118" value="answer_text" style="text;strokeColor=none;fillColor=none;align=left;verticalAlign=middle;spacingLeft=4;spacingRight=4;overflow=hidden;points=[[0,0.5],[1,0.5]];portConstraint=eastwest;rotatable=0;whiteSpace=wrap;html=1;" vertex="1" parent="VqnIIqxPbUTuVzLRbCaJ-116">
          <mxGeometry y="90" width="140" height="30" as="geometry" />
        </mxCell>
        <mxCell id="VqnIIqxPbUTuVzLRbCaJ-120" value="is_correct" style="text;strokeColor=none;fillColor=none;align=left;verticalAlign=middle;spacingLeft=4;spacingRight=4;overflow=hidden;points=[[0,0.5],[1,0.5]];portConstraint=eastwest;rotatable=0;whiteSpace=wrap;html=1;" vertex="1" parent="VqnIIqxPbUTuVzLRbCaJ-116">
          <mxGeometry y="120" width="140" height="31" as="geometry" />
        </mxCell>
        <mxCell id="VqnIIqxPbUTuVzLRbCaJ-122" value="created_at" style="text;strokeColor=none;fillColor=none;align=left;verticalAlign=middle;spacingLeft=4;spacingRight=4;overflow=hidden;points=[[0,0.5],[1,0.5]];portConstraint=eastwest;rotatable=0;whiteSpace=wrap;html=1;" vertex="1" parent="VqnIIqxPbUTuVzLRbCaJ-116">
          <mxGeometry y="151" width="140" height="30" as="geometry" />
        </mxCell>
        <mxCell id="VqnIIqxPbUTuVzLRbCaJ-123" value="update_at" style="text;strokeColor=none;fillColor=none;align=left;verticalAlign=middle;spacingLeft=4;spacingRight=4;overflow=hidden;points=[[0,0.5],[1,0.5]];portConstraint=eastwest;rotatable=0;whiteSpace=wrap;html=1;" vertex="1" parent="VqnIIqxPbUTuVzLRbCaJ-116">
          <mxGeometry y="181" width="140" height="31" as="geometry" />
        </mxCell>
        <mxCell id="VqnIIqxPbUTuVzLRbCaJ-124" value="question_unit_setting" style="swimlane;fontStyle=0;childLayout=stackLayout;horizontal=1;startSize=30;horizontalStack=0;resizeParent=1;resizeParentMax=0;resizeLast=0;collapsible=1;marginBottom=0;whiteSpace=wrap;html=1;" vertex="1" parent="1">
          <mxGeometry x="330" y="470" width="140" height="150" as="geometry" />
        </mxCell>
        <mxCell id="VqnIIqxPbUTuVzLRbCaJ-125" value="&lt;b&gt;question_unit_id&lt;/b&gt;" style="text;strokeColor=none;fillColor=none;align=left;verticalAlign=middle;spacingLeft=4;spacingRight=4;overflow=hidden;points=[[0,0.5],[1,0.5]];portConstraint=eastwest;rotatable=0;whiteSpace=wrap;html=1;" vertex="1" parent="VqnIIqxPbUTuVzLRbCaJ-124">
          <mxGeometry y="30" width="140" height="30" as="geometry" />
        </mxCell>
        <mxCell id="VqnIIqxPbUTuVzLRbCaJ-126" value="question_unit" style="text;strokeColor=none;fillColor=none;align=left;verticalAlign=middle;spacingLeft=4;spacingRight=4;overflow=hidden;points=[[0,0.5],[1,0.5]];portConstraint=eastwest;rotatable=0;whiteSpace=wrap;html=1;" vertex="1" parent="VqnIIqxPbUTuVzLRbCaJ-124">
          <mxGeometry y="60" width="140" height="30" as="geometry" />
        </mxCell>
        <mxCell id="VqnIIqxPbUTuVzLRbCaJ-134" value="created_at" style="text;strokeColor=none;fillColor=none;align=left;verticalAlign=middle;spacingLeft=4;spacingRight=4;overflow=hidden;points=[[0,0.5],[1,0.5]];portConstraint=eastwest;rotatable=0;whiteSpace=wrap;html=1;" vertex="1" parent="VqnIIqxPbUTuVzLRbCaJ-124">
          <mxGeometry y="90" width="140" height="30" as="geometry" />
        </mxCell>
        <mxCell id="VqnIIqxPbUTuVzLRbCaJ-135" value="update_at" style="text;strokeColor=none;fillColor=none;align=left;verticalAlign=middle;spacingLeft=4;spacingRight=4;overflow=hidden;points=[[0,0.5],[1,0.5]];portConstraint=eastwest;rotatable=0;whiteSpace=wrap;html=1;" vertex="1" parent="VqnIIqxPbUTuVzLRbCaJ-124">
          <mxGeometry y="120" width="140" height="30" as="geometry" />
        </mxCell>
        <mxCell id="VqnIIqxPbUTuVzLRbCaJ-137" style="edgeStyle=orthogonalEdgeStyle;rounded=0;orthogonalLoop=1;jettySize=auto;html=1;exitX=1;exitY=0.5;exitDx=0;exitDy=0;entryX=0;entryY=0.5;entryDx=0;entryDy=0;" edge="1" parent="1" source="VqnIIqxPbUTuVzLRbCaJ-23" target="VqnIIqxPbUTuVzLRbCaJ-30">
          <mxGeometry relative="1" as="geometry">
            <Array as="points">
              <mxPoint x="30" y="1194.95" />
              <mxPoint x="30" y="1224.95" />
            </Array>
          </mxGeometry>
        </mxCell>
        <mxCell id="VqnIIqxPbUTuVzLRbCaJ-138" style="edgeStyle=orthogonalEdgeStyle;rounded=0;orthogonalLoop=1;jettySize=auto;html=1;exitX=1;exitY=0.5;exitDx=0;exitDy=0;entryX=0;entryY=0.5;entryDx=0;entryDy=0;" edge="1" parent="1" source="VqnIIqxPbUTuVzLRbCaJ-29" target="VqnIIqxPbUTuVzLRbCaJ-17">
          <mxGeometry relative="1" as="geometry">
            <Array as="points">
              <mxPoint x="200" y="1194.95" />
              <mxPoint x="200" y="1254.95" />
            </Array>
          </mxGeometry>
        </mxCell>
        <mxCell id="VqnIIqxPbUTuVzLRbCaJ-139" style="edgeStyle=orthogonalEdgeStyle;rounded=0;orthogonalLoop=1;jettySize=auto;html=1;exitX=1;exitY=0.5;exitDx=0;exitDy=0;entryX=0;entryY=0.5;entryDx=0;entryDy=0;" edge="1" parent="1" source="VqnIIqxPbUTuVzLRbCaJ-23" target="VqnIIqxPbUTuVzLRbCaJ-16">
          <mxGeometry relative="1" as="geometry">
            <Array as="points">
              <mxPoint x="30" y="1194.95" />
              <mxPoint x="30" y="1139.95" />
              <mxPoint x="210" y="1139.95" />
              <mxPoint x="210" y="1224.95" />
            </Array>
          </mxGeometry>
        </mxCell>
        <mxCell id="VqnIIqxPbUTuVzLRbCaJ-140" style="edgeStyle=orthogonalEdgeStyle;rounded=0;orthogonalLoop=1;jettySize=auto;html=1;exitX=1;exitY=0.5;exitDx=0;exitDy=0;entryX=0;entryY=0.5;entryDx=0;entryDy=0;" edge="1" parent="1" source="VqnIIqxPbUTuVzLRbCaJ-15" target="VqnIIqxPbUTuVzLRbCaJ-46">
          <mxGeometry relative="1" as="geometry">
            <Array as="points">
              <mxPoint x="370" y="1194.95" />
              <mxPoint x="370" y="1224.95" />
            </Array>
          </mxGeometry>
        </mxCell>
        <mxCell id="VqnIIqxPbUTuVzLRbCaJ-141" style="edgeStyle=orthogonalEdgeStyle;rounded=0;orthogonalLoop=1;jettySize=auto;html=1;exitX=1;exitY=0.5;exitDx=0;exitDy=0;entryX=0;entryY=0.5;entryDx=0;entryDy=0;" edge="1" parent="1" source="VqnIIqxPbUTuVzLRbCaJ-2" target="VqnIIqxPbUTuVzLRbCaJ-62">
          <mxGeometry relative="1" as="geometry">
            <Array as="points">
              <mxPoint x="750" y="405" />
              <mxPoint x="750" y="340" />
              <mxPoint x="-70" y="340" />
              <mxPoint x="-70" y="815" />
            </Array>
          </mxGeometry>
        </mxCell>
        <mxCell id="VqnIIqxPbUTuVzLRbCaJ-142" style="edgeStyle=orthogonalEdgeStyle;rounded=0;orthogonalLoop=1;jettySize=auto;html=1;entryX=0;entryY=0.5;entryDx=0;entryDy=0;" edge="1" parent="1" target="VqnIIqxPbUTuVzLRbCaJ-73">
          <mxGeometry relative="1" as="geometry">
            <mxPoint x="730" y="405" as="sourcePoint" />
            <Array as="points">
              <mxPoint x="750" y="405" />
              <mxPoint x="750" y="340" />
              <mxPoint x="160" y="340" />
              <mxPoint x="160" y="815" />
            </Array>
          </mxGeometry>
        </mxCell>
        <mxCell id="VqnIIqxPbUTuVzLRbCaJ-145" style="edgeStyle=orthogonalEdgeStyle;rounded=0;orthogonalLoop=1;jettySize=auto;html=1;exitX=1;exitY=0.5;exitDx=0;exitDy=0;entryX=0;entryY=0.5;entryDx=0;entryDy=0;" edge="1" parent="1" source="VqnIIqxPbUTuVzLRbCaJ-2" target="VqnIIqxPbUTuVzLRbCaJ-103">
          <mxGeometry relative="1" as="geometry">
            <Array as="points">
              <mxPoint x="750" y="405" />
              <mxPoint x="750" y="815" />
            </Array>
          </mxGeometry>
        </mxCell>
        <mxCell id="VqnIIqxPbUTuVzLRbCaJ-146" style="edgeStyle=orthogonalEdgeStyle;rounded=0;orthogonalLoop=1;jettySize=auto;html=1;exitX=1;exitY=0.5;exitDx=0;exitDy=0;entryX=0;entryY=0.5;entryDx=0;entryDy=0;" edge="1" parent="1" source="VqnIIqxPbUTuVzLRbCaJ-2" target="VqnIIqxPbUTuVzLRbCaJ-110">
          <mxGeometry relative="1" as="geometry">
            <Array as="points">
              <mxPoint x="980" y="405" />
              <mxPoint x="980" y="815" />
            </Array>
          </mxGeometry>
        </mxCell>
        <mxCell id="VqnIIqxPbUTuVzLRbCaJ-153" style="edgeStyle=orthogonalEdgeStyle;rounded=0;orthogonalLoop=1;jettySize=auto;html=1;entryX=0;entryY=0.5;entryDx=0;entryDy=0;exitX=1;exitY=0.5;exitDx=0;exitDy=0;" edge="1" parent="1" source="VqnIIqxPbUTuVzLRbCaJ-2" target="VqnIIqxPbUTuVzLRbCaJ-93">
          <mxGeometry relative="1" as="geometry">
            <Array as="points">
              <mxPoint x="750" y="405" />
              <mxPoint x="750" y="340" />
              <mxPoint x="570" y="340" />
              <mxPoint x="570" y="815" />
            </Array>
          </mxGeometry>
        </mxCell>
        <mxCell id="VqnIIqxPbUTuVzLRbCaJ-154" style="edgeStyle=orthogonalEdgeStyle;rounded=0;orthogonalLoop=1;jettySize=auto;html=1;exitX=1;exitY=0.5;exitDx=0;exitDy=0;entryX=0;entryY=0.5;entryDx=0;entryDy=0;" edge="1" parent="1" source="VqnIIqxPbUTuVzLRbCaJ-72" target="VqnIIqxPbUTuVzLRbCaJ-82">
          <mxGeometry relative="1" as="geometry">
            <Array as="points">
              <mxPoint x="330" y="785" />
              <mxPoint x="330" y="815" />
            </Array>
          </mxGeometry>
        </mxCell>
        <mxCell id="VqnIIqxPbUTuVzLRbCaJ-160" style="edgeStyle=orthogonalEdgeStyle;rounded=0;orthogonalLoop=1;jettySize=auto;html=1;exitX=1;exitY=0.5;exitDx=0;exitDy=0;entryX=0;entryY=0.5;entryDx=0;entryDy=0;" edge="1" parent="1" source="VqnIIqxPbUTuVzLRbCaJ-102" target="VqnIIqxPbUTuVzLRbCaJ-111">
          <mxGeometry relative="1" as="geometry">
            <Array as="points">
              <mxPoint x="970" y="785" />
              <mxPoint x="970" y="845" />
            </Array>
          </mxGeometry>
        </mxCell>
        <mxCell id="VqnIIqxPbUTuVzLRbCaJ-161" style="edgeStyle=orthogonalEdgeStyle;rounded=0;orthogonalLoop=1;jettySize=auto;html=1;exitX=1;exitY=0.5;exitDx=0;exitDy=0;entryX=0;entryY=0.5;entryDx=0;entryDy=0;" edge="1" parent="1" source="VqnIIqxPbUTuVzLRbCaJ-109" target="VqnIIqxPbUTuVzLRbCaJ-117">
          <mxGeometry relative="1" as="geometry">
            <Array as="points">
              <mxPoint x="1140" y="785" />
              <mxPoint x="1140" y="815" />
            </Array>
          </mxGeometry>
        </mxCell>
        <mxCell id="VqnIIqxPbUTuVzLRbCaJ-162" style="edgeStyle=orthogonalEdgeStyle;rounded=0;orthogonalLoop=1;jettySize=auto;html=1;exitX=1;exitY=0.5;exitDx=0;exitDy=0;entryX=0;entryY=0.5;entryDx=0;entryDy=0;" edge="1" parent="1" source="VqnIIqxPbUTuVzLRbCaJ-15" target="VqnIIqxPbUTuVzLRbCaJ-61">
          <mxGeometry relative="1" as="geometry">
            <Array as="points">
              <mxPoint x="370" y="1195" />
              <mxPoint x="370" y="1110" />
              <mxPoint x="-90" y="1110" />
              <mxPoint x="-90" y="845" />
            </Array>
          </mxGeometry>
        </mxCell>
        <mxCell id="VqnIIqxPbUTuVzLRbCaJ-164" style="edgeStyle=orthogonalEdgeStyle;rounded=0;orthogonalLoop=1;jettySize=auto;html=1;exitX=1;exitY=0.5;exitDx=0;exitDy=0;entryX=0;entryY=0.5;entryDx=0;entryDy=0;" edge="1" parent="1" source="VqnIIqxPbUTuVzLRbCaJ-23" target="VqnIIqxPbUTuVzLRbCaJ-63">
          <mxGeometry relative="1" as="geometry">
            <Array as="points">
              <mxPoint x="30" y="1195" />
              <mxPoint x="30" y="1130" />
              <mxPoint x="-110" y="1130" />
              <mxPoint x="-110" y="875" />
            </Array>
          </mxGeometry>
        </mxCell>
        <mxCell id="VqnIIqxPbUTuVzLRbCaJ-165" style="edgeStyle=orthogonalEdgeStyle;rounded=0;orthogonalLoop=1;jettySize=auto;html=1;exitX=1;exitY=0.5;exitDx=0;exitDy=0;entryX=0;entryY=0.5;entryDx=0;entryDy=0;" edge="1" parent="1" source="VqnIIqxPbUTuVzLRbCaJ-29" target="VqnIIqxPbUTuVzLRbCaJ-68">
          <mxGeometry relative="1" as="geometry">
            <Array as="points">
              <mxPoint x="200" y="1195" />
              <mxPoint x="200" y="1090" />
              <mxPoint x="-70" y="1090" />
              <mxPoint x="-70" y="935" />
            </Array>
          </mxGeometry>
        </mxCell>
        <mxCell id="VqnIIqxPbUTuVzLRbCaJ-166" style="edgeStyle=orthogonalEdgeStyle;rounded=0;orthogonalLoop=1;jettySize=auto;html=1;exitX=1;exitY=0.5;exitDx=0;exitDy=0;entryX=0;entryY=0.5;entryDx=0;entryDy=0;" edge="1" parent="1" source="VqnIIqxPbUTuVzLRbCaJ-29" target="VqnIIqxPbUTuVzLRbCaJ-75">
          <mxGeometry relative="1" as="geometry">
            <Array as="points">
              <mxPoint x="200" y="1195" />
              <mxPoint x="200" y="1070" />
              <mxPoint x="160" y="1070" />
              <mxPoint x="160" y="875" />
            </Array>
          </mxGeometry>
        </mxCell>
        <mxCell id="VqnIIqxPbUTuVzLRbCaJ-167" style="edgeStyle=orthogonalEdgeStyle;rounded=0;orthogonalLoop=1;jettySize=auto;html=1;exitX=1;exitY=0.5;exitDx=0;exitDy=0;entryX=0;entryY=0.5;entryDx=0;entryDy=0;" edge="1" parent="1" source="VqnIIqxPbUTuVzLRbCaJ-15" target="VqnIIqxPbUTuVzLRbCaJ-85">
          <mxGeometry relative="1" as="geometry">
            <Array as="points">
              <mxPoint x="370" y="1195" />
              <mxPoint x="370" y="1080" />
              <mxPoint x="330" y="1080" />
              <mxPoint x="330" y="875" />
            </Array>
          </mxGeometry>
        </mxCell>
        <mxCell id="VqnIIqxPbUTuVzLRbCaJ-168" style="edgeStyle=orthogonalEdgeStyle;rounded=0;orthogonalLoop=1;jettySize=auto;html=1;exitX=1;exitY=0.5;exitDx=0;exitDy=0;entryX=0;entryY=0.5;entryDx=0;entryDy=0;" edge="1" parent="1" source="VqnIIqxPbUTuVzLRbCaJ-45" target="VqnIIqxPbUTuVzLRbCaJ-86">
          <mxGeometry relative="1" as="geometry">
            <Array as="points">
              <mxPoint x="550" y="1195" />
              <mxPoint x="550" y="1050" />
              <mxPoint x="340" y="1050" />
              <mxPoint x="340" y="905" />
            </Array>
          </mxGeometry>
        </mxCell>
        <mxCell id="VqnIIqxPbUTuVzLRbCaJ-169" style="edgeStyle=orthogonalEdgeStyle;rounded=0;orthogonalLoop=1;jettySize=auto;html=1;exitX=1;exitY=0.5;exitDx=0;exitDy=0;entryX=0;entryY=0.5;entryDx=0;entryDy=0;" edge="1" parent="1" source="VqnIIqxPbUTuVzLRbCaJ-45" target="VqnIIqxPbUTuVzLRbCaJ-87">
          <mxGeometry relative="1" as="geometry">
            <Array as="points">
              <mxPoint x="550" y="1195" />
              <mxPoint x="550" y="1065" />
              <mxPoint x="340" y="1065" />
              <mxPoint x="340" y="935" />
            </Array>
          </mxGeometry>
        </mxCell>
      </root>
    </mxGraphModel>
  </diagram>
</mxfile>
